# xmcd CD database file
#
# Track frame offsets:
#	150
#	27083
#	56130
#	70582
#	95600
#	112065
#	133750
#	167205
#	184326
#	202560
#	225370
#
# Disc length: 3218 seconds
#
# Revision: 0
# Processed by: cddbd v1.5.2PL0 Copyright (c) Steve Scherf et al.
# Submitted via: CDex 1.70beta2
#
DISCID=910c900b
DTITLE=Dan Faehnle - Ohio Lunch
DYEAR=2003
DGENRE=Jazz
TTITLE0=Ohio Lunch
TTITLE1=I Wished on the Moon
TTITLE2=The Hand
TTITLE3=The One I Love Belongs To Someone Else
TTITLE4=The Last Time I Saw You
TTITLE5=Domination
TTITLE6=Rosetta
TTITLE7=Caminhos Cruzados
TTITLE8=Brigas Nunca Mais (No More Fighting)
TTITLE9=Confession
TTITLE10=The Touch of Your Lips
EXTD=YEAR: 2003
EXTT0=
EXTT1=
EXTT2=
EXTT3=
EXTT4=
EXTT5=
EXTT6=
EXTT7=
EXTT8=
EXTT9=
EXTT10=
PLAYORDER=
